<?xml version="1.0" encoding="utf-8"?>
<!-- Generator: Adobe Illustrator 27.5.0, SVG Export Plug-In . SVG Version: 6.00 Build 0)  -->
<svg version="1.1" id="Capa_1" xmlns="http://www.w3.org/2000/svg" xmlns:xlink="http://www.w3.org/1999/xlink" x="0px" y="0px"
	 viewBox="0 0 510.236 453.544" style="enable-background:new 0 0 510.236 453.544;" xml:space="preserve">
<rect style="fill:#FFFFFF;" width="510.236" height="453.544"/>
<g>
	<path style="fill:#70BCE6;" d="M431.04,393.752c0,3.994-18.786,7.232-41.959,7.232c-23.173,0-41.958-3.238-41.958-7.232
		c0-3.994,18.785-7.23,41.958-7.23C412.254,386.522,431.04,389.758,431.04,393.752z"/>
	<g>
		<g>
			<g>
				<path style="fill:#BE7D5A;" d="M351.275,301c0,0,12.833-21.834,18.359-43.518l7.171,3.396c0,0-4.81,20.426-21.653,41.896
					L351.275,301z"/>
				<g>
					<polygon style="fill:#BE7D5A;" points="352.458,305.943 355.79,301.978 352.727,299.012 350.638,301.48 					"/>
					<g>
						<g>
							<path style="fill:#BE7D5A;" d="M348.569,303.932l-1.674,1.941c-1.521-1.207,0.857-3.338,0.857-3.338s3.204-2.455,5.772,0.463
								c0.856,0.918-0.768,4.01-0.768,4.01c-0.826,1.055-2.412,2.416-2.412,2.416c-0.777,0.504-1.264-0.438-1.264-0.438
								c-0.95,0.484-1.066-0.57-1.066-0.57c-1.031,0.232-0.902-0.785-0.902-0.785c-1.244,0.135-0.949-1.16-0.949-1.16
								L348.569,303.932z"/>
						</g>
					</g>
				</g>
			</g>
			<path style="fill:#255CAA;" d="M365.577,261.701c1.732,2.06,3.544,3.754,6.499,4.756c1.434,0.485,3.039,0.99,4.661,1.261
				c4.314-11.189,6.198-20.232,6.438-22.446c0,0,0.291-6.805-6.689-6.221c0,0-7.967-0.152-9.295,9.116
				C367.19,248.167,367.349,253.275,365.577,261.701z"/>
		</g>
		<polygon style="fill:#5073AB;" points="372.444,285.495 376.7,390.836 383.319,390.836 394.444,285.495 		"/>
		<path style="fill:#184892;" d="M376.7,389.836l-11.241,2.881c0,0-1.44,0.434-1.44,2.451h19.301l-0.277-5.332H376.7z"/>
		<path style="fill:#184892;" d="M397.841,389.311l-11.242,2.883c0,0-1.44,0.432-1.44,2.449h19.302l-0.277-5.332H397.841z"/>
		<polygon style="fill:#5A81C2;" points="372.444,288.965 384.157,310.848 386.665,341.424 396.788,389.836 404.584,389.836 
			398.3,337.674 402.866,288.965 		"/>
		<g>
			<rect x="383.987" y="227.186" style="fill:#BE7D5A;" width="7.787" height="10.424"/>
		</g>
		<path style="fill:#BE7D5A;" d="M405.505,242.117c-2.166-3.352-5.571-4.261-5.571-4.261l-8.159-3.023h-7.787l-8.156,3.023
			c0,0-3.404,0.909-5.57,4.261H405.505z"/>
		<path style="fill:#5D5FAA;" d="M393.71,235.551l6.224,2.306c0,0,6.12,1.628,7.171,8.592l-3.599,7.153l1.362,46.66h-34.607
			l1.572-45.104l-3.172-8.709c1.051-6.964,7.17-8.592,7.17-8.592l6.036-2.237l4.741,2.342L393.71,235.551z"/>
		<g>
			<g>
				<path style="fill:#BE7D5A;" d="M411.007,305.264c0,0-1.175-24.641-9.188-45.533l7.815-1.37c0,0,6.911,18.856,5.561,46.112
					L411.007,305.264z"/>
				<g>
					<polygon style="fill:#BE7D5A;" points="414.827,308.617 415.258,303.455 411.044,302.803 410.764,306.025 					"/>
					<g>
						<g>
							<path style="fill:#BE7D5A;" d="M410.491,309.221l-0.244,2.551c-1.94-0.106-1.229-3.219-1.229-3.219s1.197-3.855,4.979-2.955
								c1.229,0.254,1.689,3.715,1.689,3.715c-0.065,1.338-0.574,3.365-0.574,3.365c-0.344,0.861-1.283,0.373-1.283,0.373
								c-0.497,0.943-1.201,0.15-1.201,0.15c-0.707,0.785-1.189-0.119-1.189-0.119c-0.938,0.828-1.445-0.398-1.445-0.398
								L410.491,309.221z"/>
						</g>
					</g>
				</g>
			</g>
			<path style="fill:#255CAA;" d="M412.067,259.734c-2.5-9.412-5.292-16.078-6.247-17.793c0,0-3.692-5.721-9.052-1.213
				c0,0-6.593,4.476-2.324,12.811c0,0,2.787,3.835,5.932,11.397C404.208,264.549,409.242,262.838,412.067,259.734z"/>
		</g>
		<g>
			<path style="fill:#602B15;" d="M376.093,212.371c-0.179-1.418-0.331-1.908-0.367-5.271c-0.018-1.586,0.293-3.979,2.264-4.182
				c2.732-0.279,3.575,4.439,3.736,6.484c0.223,2.818-0.477,5.861-1.02,8.621c-0.196,0.996-0.176,2.985-1.297,3.467
				c-0.959,0.412-0.796,0.564-1.285-0.156C376.942,219.596,376.347,214.381,376.093,212.371z"/>
			<path style="fill:#BE7D5A;" d="M376.253,225.734c1.08,4.227,2.983,5.393,2.983,5.393l2.552,0.498
				c1.47-0.188,4.002-0.784,4.002-0.784c5.83-1.981,7.765-1.862,8.969-4.894c0.037-0.094,4.051-15.756,4.051-15.756
				c0.746-8.144-7.776-9.838-9.065-10.049c-1.272-0.293-9.389-2.551-11.786,5.267C377.959,205.409,374.417,214.469,376.253,225.734z
				"/>
			<path style="fill:#AA7150;" d="M392.897,227.316c-2.346,1.813-6.314,3.002-9.235,3.311c-5.185,0.547-6.355-3.273-7.246-7.317
				c0.079,0.931,0.183,1.876,0.341,2.847c1.008,3.943,2.783,5.031,2.783,5.031l2.38,0.465c1.372-0.176,3.734-0.732,3.734-0.732
				c5.439-1.85,7.243-1.736,8.366-4.564c0.006-0.012,0.078-0.291,0.198-0.756C393.86,226.258,393.454,226.887,392.897,227.316z"/>
			<path style="fill:#602B15;" d="M373.901,200.789c0.369-0.584,0.969-0.483,1.268-1.237c0.25-0.632-0.248-1.55,0.191-2.097
				c0.664-0.824,2.977-0.594,3.805-0.324c1.466,0.477,1.756,1.289,3.332,0.583c1.344-0.601,1.625-1.392,3.339-1.087
				c1.257,0.223,2.102,1.031,3.536,0.795c1.268-0.209,2.078-1.113,3.501-1c0.688,0.056,1.454,0.16,1.967,0.713
				c0.589,0.636,0.214,0.948,0.533,1.621c0.407,0.857,0.035,0.629,0.833,1.166c0.463,0.313,1.193,0.095,1.625,0.534
				c1.143,1.163-0.15,2.838,0.53,3.974c0.72,1.204,2.76,0.434,3.182,2.159c0.177,0.722-0.464,1.317-0.337,2
				c0.172,0.912,0.5,0.663,0.955,1.374c0.676,1.061,0.939,1.869,0.058,3.135c-0.984,1.414-1.348,1.529-1.346,3.491
				c0.002,2.127-0.263,1.89-1.537,3.288c-1.052,1.154-0.768,2.518-1.958,3.551c-0.438,0.379-1.023,0.447-1.51,0.99
				c-0.43,0.481-0.525,1.213-1.129,1.654c-0.249-2.477,1.18-4.828,1.301-7.316c0.104-2.146-0.031-6.264-1.283-8.041
				c-1.52-2.156-5.251-1.461-7.559-1.459C384.274,209.259,370.209,206.635,373.901,200.789z"/>
			<path style="fill:#BE7D5A;" d="M395.031,218.979c0,0,1.44-3.141,3.707-1.279c0,0,1.031,0.805-0.239,2.904
				c0,0-1.845,3.023-4.055,1.35L395.031,218.979z"/>
		</g>
	</g>
</g>
<g>
	<ellipse style="fill:#70BCE6;" cx="125.995" cy="393.754" rx="41.193" ry="7.231"/>
	<g>
		<g>
			<g>
				<polygon style="fill:#F8B78F;" points="166.872,301.713 162.509,298.92 164.552,295.176 167.281,296.91 				"/>
				<g>
					<g>
						<path style="fill:#FBB88E;" d="M169.983,298.637l2.176,1.354c1.094-1.604-1.811-2.932-1.811-2.932s-3.789-1.389-5.371,2.162
							c-0.545,1.129,1.924,3.598,1.924,3.598c1.104,0.762,3.023,1.588,3.023,1.588c0.893,0.25,1.076-0.793,1.076-0.793
							c1.051,0.178,0.848-0.861,0.848-0.861c1.053-0.086,0.627-1.018,0.627-1.018c1.229-0.242,0.563-1.391,0.563-1.391
							L169.983,298.637z"/>
					</g>
				</g>
			</g>
			<path style="fill:#001346;" d="M137.485,388.682l11.242,2.883c0,0,1.441,0.432,1.441,2.449h-19.302l0.277-5.332H137.485z"/>
			<path style="fill:#002C43;" d="M162.358,300.678l-19.322-15.1c0,0-2.725-2.986-4.191-10.06l-5.274-17.809
				c0,0,4.419-14.467,11.98-14.268c0,0,0.919,5.606,0.795,19.076l2.026,13.443c0,0,0.014,1.314,5.702,7.166l12.375,11.426
				C166.448,294.553,165.377,299.436,162.358,300.678z"/>
			<polygon style="fill:#004F8C;" points="141.866,283.34 137.61,388.682 130.991,388.682 119.867,283.34 			"/>
			<polygon style="fill:#006AB6;" points="131.181,283.127 129.14,308.947 124.552,343.898 119.513,388.682 112.825,388.682 
				114.216,339.605 111.774,283.127 			"/>
			<g>
				<rect x="122.536" y="225.031" style="fill:#F8B78F;" width="7.787" height="10.424"/>
			</g>
			<path style="fill:#F8B78F;" d="M108.807,239.963c2.166-3.352,5.571-4.262,5.571-4.262l8.158-3.021h7.787l8.156,3.021
				c0,0,3.404,0.91,5.571,4.262H108.807z"/>
			<path style="fill:#90C1E8;" d="M122.536,232.68l-8.158,3.021c0,0-6.121,1.629-7.171,8.592l3.599,7.154l1.017,37.525h29.817
				l0.838-35.971l3.172-8.709c-1.05-6.963-7.17-8.592-7.17-8.592l-8.156-3.021l-2.621,3.127L122.536,232.68z"/>
			<polygon style="fill:#00172D;" points="141.71,285.928 141.64,288.973 111.822,288.973 111.739,285.928 			"/>
			<g>
				<path style="fill:#F8B78F;" d="M136.128,225.148c-1.62,4.051-3.658,4.959-3.658,4.959l-2.596,0.164
					c-1.433-0.377-3.866-1.299-3.866-1.299c-5.523-2.721-7.457-2.854-8.257-6.016c-0.025-0.098-1.972-16.148-1.972-16.148
					c0.317-8.172,8.987-8.746,10.292-8.787c1.301-0.125,9.641-1.311,11.003,6.752C137.074,204.773,139.409,214.215,136.128,225.148z
					"/>
				<path style="fill:#F8B78F;" d="M136.058,223.104c-1.102,2.115-3.116,4.572-5.774,4.541c-1.979-0.023-4.298-0.871-6.12-1.637
					c-1.961-0.824-4.469-1.59-6.164-2.852c-0.085-0.063-0.164-0.131-0.248-0.195c0-0.002,0-0.002,0-0.004
					c-0.025-0.098-1.972-16.148-1.972-16.148c0.317-8.172,8.987-8.746,10.292-8.787c1.301-0.125,9.641-1.311,11.003,6.752
					c0,0,2.016,8.176-0.346,18.117C136.498,222.781,136.212,222.811,136.058,223.104z"/>
				<path style="fill:#E6AB86;" d="M119.771,225.295c3.215,1.506,5.054,2.537,7.533,3.398c3.792,1.318,5.792,1.549,8.846-3.623
					c-0.008,0.027-0.014,0.051-0.021,0.078c-1.62,4.051-3.658,4.959-3.658,4.959l-2.596,0.164c-1.433-0.377-3.866-1.299-3.866-1.299
					c-4.329-2.133-6.448-2.68-7.55-4.338C118.88,224.873,119.32,225.084,119.771,225.295z"/>
				<path style="fill:#38317D;" d="M138.298,200.754c0.712,3.961-0.481,14.443-0.481,14.443s-0.33-10.504-3.158-12.754
					c0,0-2.833-1.332-4.833,0.334c0,0-9.457-3.66-10.714,5.945l-1.218,8.367l-0.143,5.867c-5.982-7.287-5.547-17.551-5.547-17.551
					s-1.054-6.637,3.699-7.518c0,0-0.413-5.545,8.92-6.379c0,0-1.343,1.787-1.838,2.977c0,0,1.665-3.977,10.585-2.977
					c0,0-2.247,0.676-3.247,2.254c0,0,1.939,0.924,7.553-2.416C137.876,191.348,144.106,197.166,138.298,200.754z"/>
				<path style="fill:#F8B78F;" d="M118.385,216.012c0,0-1.021-3.301-3.509-1.75c0,0-1.127,0.664-0.141,2.912
					c0,0,1.438,3.234,3.846,1.863L118.385,216.012z"/>
				<path style="fill:#0E074B;" d="M119.111,208.723c0,0-0.72,5.574-0.083,8.664l-1.115,0.072c0,0-0.07-3.896-2.031-4.199
					L119.111,208.723z"/>
			</g>
			<g>
				<g>
					<path style="fill:#FBB88E;" d="M103.722,302.27c0,0,0.588-24.662,8.101-45.74l-7.846-1.184c0,0-6.459,19.016-4.462,46.234
						L103.722,302.27z"/>
					<g>
						<polygon style="fill:#F8B78F;" points="99.982,305.713 99.429,300.563 103.627,299.811 103.983,303.025 						"/>
						<g>
							<g>
								<path style="fill:#FBB88E;" d="M104.331,306.213l0.306,2.545c1.936-0.152,1.151-3.248,1.151-3.248s-1.289-3.824-5.048-2.834
									c-1.222,0.281-1.6,3.752-1.6,3.752c0.098,1.336,0.654,3.352,0.654,3.352c0.364,0.852,1.293,0.344,1.293,0.344
									c0.519,0.93,1.203,0.119,1.203,0.119c0.727,0.77,1.186-0.146,1.186-0.146c0.957,0.805,1.437-0.434,1.437-0.434
									L104.331,306.213z"/>
							</g>
						</g>
					</g>
				</g>
				<path style="fill:#003A54;" d="M104.919,301.82c4.109-40.963,14.481-54.315,14.481-54.315
					c2.474-7.384-2.981-10.093-2.981-10.093c-6.84-2.254-8.67,4.08-8.67,4.08c-0.914,1.738-13.543,39.502-9.317,60.354
					C98.432,301.846,100.74,302.676,104.919,301.82z"/>
			</g>
			<path style="fill:#003A54;" d="M134.658,301.998l-1.588-68.301l5.409,2.004c0,0,6.12,1.629,7.17,8.592l-3.172,8.709l1.573,45.105
				L134.658,301.998z"/>
			<path style="fill:#003A54;" d="M122.536,302.512l-13.093-4.404l1.362-46.66l-3.599-7.154c1.05-6.963,7.171-8.592,7.171-8.592
				l8.158-3.021V302.512z"/>
			<polygon style="fill:#A25A84;" points="130.323,235.738 124.823,235.738 124.823,238.424 126.69,240.291 129.24,240.291 
				130.323,238.014 			"/>
			<polygon style="fill:#C2DDF4;" points="127.702,235.807 122.536,231.006 118.269,233.693 123.908,239.256 			"/>
			<polygon style="fill:#C2DDF4;" points="127.702,235.807 130.408,231.568 134.658,233.818 131.471,238.943 			"/>
			<rect x="128.073" y="285.379" style="fill:#6CB1CE;" width="5.497" height="4.141"/>
			<path style="fill:#072960;" d="M119.328,388.682l11.241,2.883c0,0,1.441,0.432,1.441,2.449H112.71l0.277-5.332H119.328z"/>
		</g>
		<polygon style="fill:#A25A84;" points="129.24,240.291 133.07,280.512 129.24,284.762 124.823,280.512 126.69,240.291 		"/>
	</g>
</g>
<g>
	<path style="fill:#6F5FA6;" d="M304.708,65.203c-1.158-7.236-4.051-14.184-8.836-20.194c-15.131-19.002-47.662-24.465-67.099-9.17
		c-20.844,16.402-35.622,54.519-10.98,72.144c2.771,1.982,5.924,3.696,9.341,5.132c-0.891,4.148-2.917,11.09-6.848,13.72
		c0,0,14.78,1.136,20.339-9.751c21.932,4.073,47.965-1.399,58.073-19.494C304.265,87.626,306.449,76.09,304.708,65.203z"/>
	<path style="fill:#97D5F0;" d="M258.296,103.063c-9.693-1.229-18.996-5.238-24.735-13.433c-5.86-8.362-8.132-18.996-7.477-29.1
		c0.623-9.596,3.352-19.369,10.575-26.112c2.7-2.521,5.721-4.58,8.929-6.323c-6.116,1.326-11.886,3.865-16.814,7.743
		c-20.844,16.402-35.622,54.519-10.98,72.144c2.771,1.982,5.924,3.696,9.341,5.132c-0.891,4.148-2.917,11.09-6.848,13.72
		c0,0,14.78,1.136,20.339-9.751c21.932,4.073,47.965-1.399,58.073-19.494c1.001-1.792,1.888-3.637,2.668-5.519
		C289.626,101.655,273.095,104.941,258.296,103.063z"/>
	<g>
		<path style="fill:#FFFFFF;" d="M244.855,75.489c0,3.16-2.562,5.72-5.72,5.72c-3.16,0-5.72-2.56-5.72-5.72
			c0-3.158,2.56-5.72,5.72-5.72C242.294,69.769,244.855,72.331,244.855,75.489z"/>
		<path style="fill:#FFFFFF;" d="M262.936,74.699c0,3.158-2.56,5.72-5.72,5.72c-3.16,0-5.72-2.562-5.72-5.72
			c0-3.16,2.559-5.72,5.72-5.72C260.376,68.979,262.936,71.539,262.936,74.699z"/>
		<path style="fill:#FFFFFF;" d="M281.019,73.907c0,3.158-2.561,5.72-5.72,5.72c-3.158,0-5.72-2.562-5.72-5.72
			c0-3.16,2.561-5.72,5.72-5.72C278.458,68.188,281.019,70.748,281.019,73.907z"/>
	</g>
</g>
<g>
	<path style="fill:#6881BD;" d="M60.425,92.419l91.035,7.089c6.171,0,11.174,5.004,11.174,11.174l-7.09,44.607
		c0,6.172-5.001,11.174-11.174,11.174l-4.297,0.265h0.002c0,0-2.55,9.619,2.452,14.621c0,0-14.901-3.603-17.304-13.709
		l-57.711,3.549c-6.171,0-11.174-5.003-11.174-11.174l-7.088-56.423C49.251,97.422,54.252,92.419,60.425,92.419z"/>
	<path style="fill:#477CBC;" d="M49.459,101.462c0.132,3.033,0.372,6.068,0.713,9.097c0.703,6.246,1.642,12.481,2.75,18.669
		c0.997,5.571,2.178,11.322,4.718,16.428c4.266,8.574,13.485,11.744,22.44,13.087c9.365,1.405,18.772,0.93,28.188,1.504
		c5.184,0.316,10.391,0.697,15.587,0.466c4.467-0.201,9.516-0.58,13.47-2.89c7.642-4.463,8.873-15.552,9.919-23.433
		c1.188-8.982,3.464-20.706-2.759-28.414c-2.881-3.567-6.601-5.151-10.817-6.641c-1.389-0.492-3.159-0.974-4.916-1.596l22.709,1.768
		c6.171,0,11.174,5.004,11.174,11.174l-7.09,44.607c0,6.172-5.001,11.174-11.174,11.174l-4.297,0.265h0.002
		c0,0-2.55,9.619,2.452,14.621c0,0-14.901-3.603-17.304-13.709l-57.711,3.549c-6.171,0-11.174-5.003-11.174-11.174l-7.088-56.423
		C49.251,102.864,49.325,102.152,49.459,101.462z"/>
	<g>
		<path style="fill:#FFFFFF;" d="M71.417,122.137c0,1.265,1.027,2.292,2.293,2.292h64.466c1.265,0,2.292-1.027,2.292-2.292l0,0
			c0-1.267-1.027-2.293-2.292-2.293H73.71C72.444,119.844,71.417,120.87,71.417,122.137L71.417,122.137z"/>
		<path style="fill:#FFFFFF;" d="M71.417,131.805c0,1.265,1.027,2.292,2.293,2.292h64.466c1.265,0,2.292-1.027,2.292-2.292l0,0
			c0-1.267-1.027-2.292-2.292-2.292H73.71C72.444,129.512,71.417,130.538,71.417,131.805L71.417,131.805z"/>
		<path style="fill:#FFFFFF;" d="M71.417,141.473c0,1.267,1.027,2.292,2.293,2.292h64.466c1.265,0,2.292-1.026,2.292-2.292l0,0
			c0-1.265-1.027-2.292-2.292-2.292H73.71C72.444,139.18,71.417,140.208,71.417,141.473L71.417,141.473z"/>
	</g>
</g>
<g>
	<g>
		<path style="fill:#70BCE6;" d="M186.682,392.315l-19.34,21.578c0,1.926,1.563,3.482,3.484,3.482h168.59
			c1.922,0,3.479-1.557,3.479-3.482l-19.336-21.578H186.682z"/>
		<g>
			<path style="fill:#184892;" d="M188.516,142.726c-1.943,0-3.518,1.572-3.518,3.516v245.252c0,1.939,1.574,3.512,3.518,3.512
				h131.525c1.94,0,3.518-1.572,3.518-3.512V146.241c0-1.943-1.578-3.516-3.518-3.516H188.516z"/>
			<g>
				<rect x="184.998" y="158.577" style="fill:#6A54A1;" width="138.561" height="220.58"/>
				<polygon style="opacity:0.3;fill:#FFFFFF;" points="323.559,379.157 184.998,379.157 184.998,158.577 				"/>
			</g>
			<g>
				<path style="fill:#012257;" d="M273.408,151.011c0,1.047-0.848,1.893-1.893,1.893c-1.043,0-1.892-0.846-1.892-1.893
					c0-1.043,0.85-1.891,1.892-1.891C272.561,149.12,273.408,149.968,273.408,151.011z"/>
				<path style="fill:#012257;" d="M269.043,151.011c0,0.938-0.76,1.695-1.693,1.695h-30.504c-0.938,0-1.697-0.758-1.697-1.695l0,0
					c0-0.936,0.76-1.693,1.697-1.693h30.504C268.283,149.317,269.043,150.075,269.043,151.011L269.043,151.011z"/>
			</g>
		</g>
	</g>
	<path style="fill:#8DA4CE;" d="M310.557,245.818c0,24.704-20.025,44.726-44.73,44.726c-24.701,0-44.727-20.022-44.727-44.726
		c0-24.702,20.025-44.73,44.727-44.73C290.531,201.089,310.557,221.116,310.557,245.818z"/>
	<g>
		<g>
			<defs>
				<path id="SVGID_1_" d="M299.846,243.13c0,24.705-20.025,44.729-44.73,44.729c-24.701,0-44.727-20.023-44.727-44.729
					c0-24.701,20.025-44.729,44.727-44.729C279.82,198.401,299.846,218.429,299.846,243.13z"/>
			</defs>
			<use xlink:href="#SVGID_1_"  style="overflow:visible;fill:#FFFFFF;"/>
			<clipPath id="SVGID_00000119816824220456341650000011479699869571279234_">
				<use xlink:href="#SVGID_1_"  style="overflow:visible;"/>
			</clipPath>
			<g style="clip-path:url(#SVGID_00000119816824220456341650000011479699869571279234_);">
				<path style="fill:#A4DEF6;" d="M230.137,273.532c3.154-4.879,8.107-6.201,8.107-6.201l11.873-4.4h11.334l11.869,4.4
					c0,0,4.953,1.322,8.107,6.201H230.137z"/>
				<path style="fill:#46C6E6;" d="M271.266,296.632h18.342c0-3.133-0.205-7.596-0.205-7.596
					c-1.078-18.756-14.746-21.705-14.746-21.705c-10.66-2.58-4.85,13.904-4.85,13.904
					C269.527,285.208,270.119,290.552,271.266,296.632z"/>
				<g>
					<rect x="248.004" y="251.8" style="fill:#A4DEF6;" width="15.561" height="15.17"/>
				</g>
				<g>
					<path style="fill:#6FCFF3;" d="M263.565,258.851V251.8h-15.561v3.492C252.443,258.985,257.789,259.454,263.565,258.851z"/>
				</g>
				<path style="fill:#46C6E6;" d="M280.129,296.632c0.297-8.178,0.207-10.426,0.133-13.215c-0.162-6.215-1.49-11.467-5.588-16.08
					c-0.008-0.004-0.017-0.006-0.017-0.006l-11.094-3.617c0,0,2.332,4.082-7.861,4.082c0,0-6.715-0.26-7.697-4.082l-11.264,3.617
					c0,0-9.629,2.369-11.281,12.504l5.662,10.408l-0.203,6.389H280.129z"/>
				<g>
					<path style="fill:#5C79BC;" d="M274.307,229.2c0-3.607-0.152-7.205-0.068-10.807c0.055-2.303,0.266-1.709-2.4-1.963
						c-3.695-0.35-4.93,6.514-5.188,9.484c-0.357,4.096,0.527,8.502,1.209,12.494c0.246,1.441,0.18,4.33,1.688,5.006
						c1.291,0.578,2.639-0.848,3.316-1.902c1.559-2.426,1.283-6.137,1.387-8.891C274.291,231.48,274.307,230.341,274.307,229.2z"/>
					<path style="fill:#A4DEF6;" d="M272.707,249.688c-1.572,6.155-4.342,7.851-4.342,7.851l-3.715,0.725
						c-2.137-0.271-5.824-1.143-5.824-1.143c-8.484-2.885-10.943-3.662-12.26-6.889c-0.055-0.138-6.688-23.164-6.688-23.164
						c-1.084-11.852,11.32-14.316,13.193-14.627c1.852-0.428,13.662-3.709,17.152,7.668
						C270.225,220.108,275.379,233.292,272.707,249.688z"/>
					<path style="fill:#4F69A3;" d="M238.605,216.189c-4.123,1.988-4.264,5.668-4.07,9.851c0.15,3.246,1.152,6.014,2.313,9.16
						c1.979,5.367,1.979,5.367,3.732,8.453c0,0,2.732,4.249,6.252,7.162c-1.02-4.04-1.305-7.057-2.234-10.16
						c-1.117-3.723-0.789-8.709,0.869-12.533c0,0,0.939-2.545,4.795-3.27c3.857-0.726,0,0,0,0L238.605,216.189"/>
					<path style="fill:#A4DEF6;" d="M245.379,239.857c0,0-2.098-4.57-5.395-1.863c0,0-1.5,1.172,0.348,4.23
						c0,0,2.686,4.397,5.902,1.959L245.379,239.857z"/>
					<path style="fill:#4F69A3;" d="M245.051,229.2c0,0,0.014,8.18,1.516,12.52l-1.594,0.316c0,0-0.838-5.611-3.727-5.678
						L245.051,229.2z"/>
					<path style="fill:#5C79BC;" d="M276.346,211.677c13.262,13.506-26.867,13.369-26.867,13.369s-4.209,1.945-10.873-8.857
						c0,0-1.797-8.447,17.178-11.109C255.783,205.079,268.324,203.542,276.346,211.677z"/>
				</g>
				<path style="fill:#46C6E6;" d="M241.195,296.632c0,0-17.135,0-17.146,0c0.006,0,0.061-4.068,0.068-4.357
					c0.129-4.002,0.383-8.033,1.104-11.979c1.031-5.635,3.768-10.637,9.795-12.068c2.758-0.656,5.211,1.012,6.705,3.283
					C241.721,271.511,244.447,274.874,241.195,296.632z"/>
			</g>
		</g>
	</g>
	<path style="fill:#FFFFFF;" d="M303.34,300.46c0,1.605-1.301,2.906-2.906,2.906h-90.633c-1.604,0-2.906-1.301-2.906-2.906l0,0
		c0-1.605,1.303-2.906,2.906-2.906h90.633C302.039,297.554,303.34,298.854,303.34,300.46L303.34,300.46z"/>
	<path style="fill:#FFFFFF;" d="M303.34,318.905c0,1.605-1.301,2.906-2.906,2.906h-90.633c-1.604,0-2.906-1.301-2.906-2.906l0,0
		c0-1.605,1.303-2.906,2.906-2.906h90.633C302.039,315.999,303.34,317.3,303.34,318.905L303.34,318.905z"/>
	<path style="fill:#FFFFFF;" d="M303.34,337.409c0,1.605-1.301,2.906-2.906,2.906h-90.633c-1.604,0-2.906-1.301-2.906-2.906l0,0
		c0-1.605,1.303-2.906,2.906-2.906h90.633C302.039,334.503,303.34,335.804,303.34,337.409L303.34,337.409z"/>
</g>
<g>
	<path style="fill:#5FCAE5;" d="M478.126,120.515c0-10.041-8.141-18.18-18.182-18.18c-2.303,0-4.495,0.445-6.523,1.225
		c-1.923-10.43-11.056-18.333-22.041-18.333c-9.637,0-17.85,6.081-21.021,14.612c-1.565-1.111-3.472-1.771-5.536-1.771
		c-5.291,0-9.58,4.289-9.58,9.58c0,0.583,0.061,1.151,0.16,1.705c-1.883-1.079-4.059-1.705-6.385-1.705
		c-7.106,0-12.867,5.759-12.867,12.866c0,5.7,3.709,10.526,8.843,12.216c-2.841,3.22-4.581,7.437-4.581,12.069
		c0,10.088,8.178,18.267,18.266,18.267c2.659,0,5.178-0.582,7.457-1.602c0.719,9.381,8.544,16.772,18.109,16.772
		c8.287,0,15.266-5.55,17.455-13.13c3.216,2.874,7.446,4.637,12.1,4.637c10.041,0,18.182-8.139,18.182-18.181
		c0-5.52-2.468-10.454-6.35-13.788C472.885,135.386,478.126,128.568,478.126,120.515z"/>
	<path style="fill:#C8EAF5;" d="M478.126,120.515c0-8.54-5.891-15.7-13.828-17.652c3.896,3.669,6.773,9.112,6.923,14.481
		c0.147,5.329-1.567,11.701-6.005,15.045c-1.922,1.449-5.814,3.281-8.297,3.033c3.49,4.491,4.75,10.113-0.33,14.652
		c-5.674,5.071-12.551,4.523-17.081-0.891c0.117,4.58-1.403,10.523-5.47,13.099c-3.34,2.113-8.02,3.294-11.953,2.812
		c-7.94-0.969-12.575-6.741-13.255-14.432c0.039,0.429-2.502,2.044-2.894,2.316c-0.988,0.689-2.04,1.292-3.176,1.705
		c-7.586,2.757-17.287-3.591-16.461-11.858c0.275-2.765,1.229-6.27,2.615-8.688c0.62-1.084,2.404-3.801,3.952-3.7
		c-10.036-0.655-12.407-17.535-1.147-22.496c-0.871-0.189-1.773-0.292-2.701-0.292c-7.106,0-12.867,5.759-12.867,12.866
		c0,5.7,3.709,10.526,8.843,12.216c-2.841,3.22-4.581,7.437-4.581,12.069c0,10.088,8.178,18.267,18.266,18.267
		c2.659,0,5.178-0.582,7.457-1.602c0.719,9.381,8.544,16.772,18.109,16.772c8.287,0,15.266-5.55,17.455-13.13
		c3.216,2.874,7.446,4.637,12.1,4.637c10.041,0,18.182-8.139,18.182-18.181c0-5.52-2.468-10.454-6.35-13.788
		C472.885,135.386,478.126,128.568,478.126,120.515z"/>
	<path style="fill:#5FCAE5;" d="M397.764,173.9c-1.735,2.084-5.357,1.931-8.087-0.343c-2.73-2.274-3.535-5.808-1.799-7.892
		c1.736-2.084,5.358-1.931,8.088,0.343C398.695,168.283,399.501,171.816,397.764,173.9z"/>
	<path style="fill:#5FCAE5;" d="M388.322,178.492c-1.316,1.581-4.064,1.465-6.136-0.261c-2.072-1.726-2.683-4.407-1.365-5.988
		c1.318-1.581,4.065-1.465,6.138,0.261C389.029,174.23,389.64,176.911,388.322,178.492z"/>
	<path style="fill:#5FCAE5;" d="M379.97,180.563c-0.93,1.117-2.867,1.036-4.33-0.183c-1.461-1.217-1.893-3.11-0.962-4.225
		c0.929-1.117,2.867-1.034,4.33,0.185C380.469,177.556,380.9,179.447,379.97,180.563z"/>
	<path style="fill:#C8EAF5;" d="M424.694,113.428c0-6.432,5.215-11.646,11.646-11.646c2.556,0,4.91,0.833,6.831,2.228
		c-2.116-2.914-5.542-4.816-9.418-4.816c-6.433,0-11.646,5.214-11.646,11.646c0,3.876,1.902,7.3,4.815,9.418
		C425.526,118.338,424.694,115.982,424.694,113.428z"/>
	<path style="fill:#C8EAF5;" d="M404.966,141.139c4.797-0.911,9.424,2.237,10.337,7.033c0.36,1.905,0.074,3.78-0.693,5.409
		c1.873-1.991,2.805-4.816,2.255-7.706c-0.911-4.796-5.539-7.944-10.335-7.033c-2.892,0.55-5.175,2.454-6.341,4.927
		C401.422,142.456,403.061,141.501,404.966,141.139z"/>
	<g>
		<path style="fill:#FFFFFF;" d="M416.46,133.523c0,2.729-2.212,4.941-4.94,4.941c-2.729,0-4.94-2.212-4.94-4.941
			c0-2.729,2.211-4.94,4.94-4.94C414.248,128.583,416.46,130.794,416.46,133.523z"/>
		<path style="fill:#FFFFFF;" d="M432.079,132.84c0,2.728-2.213,4.94-4.94,4.94c-2.729,0-4.94-2.212-4.94-4.94
			c0-2.73,2.211-4.941,4.94-4.941C429.866,127.899,432.079,130.11,432.079,132.84z"/>
		<path style="fill:#FFFFFF;" d="M447.697,132.156c0,2.728-2.211,4.94-4.94,4.94c-2.729,0-4.94-2.212-4.94-4.94
			c0-2.728,2.212-4.94,4.94-4.94C445.486,127.216,447.697,129.428,447.697,132.156z"/>
	</g>
</g>
</svg>
