<svg xmlns="http://www.w3.org/2000/svg" width="29.259" height="15.958" viewBox="0 0 29.259 15.958">
  <path id="purshased" d="M20.908,6.99a1.329,1.329,0,0,0-.914.4l-5.1,5.1a1.329,1.329,0,1,0,1.879,1.879l5.1-5.1a1.329,1.329,0,0,0-.965-2.281Zm7.972,0a1.329,1.329,0,0,0-.914.4L15.619,19.741l-4.376-4.375a1.329,1.329,0,1,0-1.879,1.879l5.315,5.315a1.329,1.329,0,0,0,1.879,0L29.846,9.272a1.329,1.329,0,0,0-.965-2.281ZM2.319,14.963a1.329,1.329,0,0,0-.926,2.281l4.321,4.324a1.33,1.33,0,0,0,1.882-1.882L3.271,15.365a1.329,1.329,0,0,0-.952-.4Z" transform="translate(-0.99 -6.99)" fill="#fff"/>
</svg>
